<mxfile host="Electron" modified="2024-01-02T15:51:55.480Z" agent="Mozilla/5.0 (Windows NT 10.0; Win64; x64) AppleWebKit/537.36 (KHTML, like Gecko) draw.io/21.6.8 Chrome/114.0.5735.289 Electron/25.5.0 Safari/537.36" etag="huwGeC7wvyI1rPxui51_" version="21.6.8" type="device">
  <diagram name="Page-1" id="NmaM-7QIcSy1gLq_cfCB">
    <mxGraphModel dx="940" dy="750" grid="1" gridSize="10" guides="1" tooltips="1" connect="1" arrows="1" fold="1" page="1" pageScale="1" pageWidth="827" pageHeight="1169" math="0" shadow="0">
      <root>
        <mxCell id="0" />
        <mxCell id="1" parent="0" />
        <mxCell id="M-ZwMUQiYMg1TXeoFl-8-4" style="edgeStyle=orthogonalEdgeStyle;rounded=0;orthogonalLoop=1;jettySize=auto;html=1;exitX=0.5;exitY=0;exitDx=0;exitDy=0;entryX=0.5;entryY=0;entryDx=0;entryDy=0;" edge="1" parent="1" source="M-ZwMUQiYMg1TXeoFl-8-1" target="M-ZwMUQiYMg1TXeoFl-8-2">
          <mxGeometry relative="1" as="geometry" />
        </mxCell>
        <mxCell id="M-ZwMUQiYMg1TXeoFl-8-11" style="edgeStyle=orthogonalEdgeStyle;rounded=0;orthogonalLoop=1;jettySize=auto;html=1;exitX=0.5;exitY=1;exitDx=0;exitDy=0;entryX=0.5;entryY=0;entryDx=0;entryDy=0;" edge="1" parent="1" source="M-ZwMUQiYMg1TXeoFl-8-1" target="M-ZwMUQiYMg1TXeoFl-8-10">
          <mxGeometry relative="1" as="geometry" />
        </mxCell>
        <mxCell id="M-ZwMUQiYMg1TXeoFl-8-1" value="Login" style="rounded=1;whiteSpace=wrap;html=1;" vertex="1" parent="1">
          <mxGeometry x="354" y="170" width="120" height="60" as="geometry" />
        </mxCell>
        <mxCell id="M-ZwMUQiYMg1TXeoFl-8-6" style="edgeStyle=orthogonalEdgeStyle;rounded=0;orthogonalLoop=1;jettySize=auto;html=1;exitX=0.5;exitY=1;exitDx=0;exitDy=0;entryX=1;entryY=1;entryDx=0;entryDy=0;" edge="1" parent="1" source="M-ZwMUQiYMg1TXeoFl-8-2" target="M-ZwMUQiYMg1TXeoFl-8-1">
          <mxGeometry relative="1" as="geometry" />
        </mxCell>
        <mxCell id="M-ZwMUQiYMg1TXeoFl-8-8" style="edgeStyle=orthogonalEdgeStyle;rounded=0;orthogonalLoop=1;jettySize=auto;html=1;exitX=0;exitY=0.75;exitDx=0;exitDy=0;entryX=1;entryY=0.75;entryDx=0;entryDy=0;" edge="1" parent="1" source="M-ZwMUQiYMg1TXeoFl-8-2" target="M-ZwMUQiYMg1TXeoFl-8-1">
          <mxGeometry relative="1" as="geometry" />
        </mxCell>
        <mxCell id="M-ZwMUQiYMg1TXeoFl-8-2" value="Registration" style="rounded=1;whiteSpace=wrap;html=1;" vertex="1" parent="1">
          <mxGeometry x="700" y="170" width="120" height="60" as="geometry" />
        </mxCell>
        <mxCell id="M-ZwMUQiYMg1TXeoFl-8-5" value="Clicks on Create Account" style="text;html=1;strokeColor=none;fillColor=none;align=center;verticalAlign=middle;whiteSpace=wrap;rounded=0;" vertex="1" parent="1">
          <mxGeometry x="590" y="110" width="60" height="30" as="geometry" />
        </mxCell>
        <mxCell id="M-ZwMUQiYMg1TXeoFl-8-7" value="Creates a new account" style="text;html=1;strokeColor=none;fillColor=none;align=center;verticalAlign=middle;whiteSpace=wrap;rounded=0;" vertex="1" parent="1">
          <mxGeometry x="610" y="260" width="60" height="30" as="geometry" />
        </mxCell>
        <mxCell id="M-ZwMUQiYMg1TXeoFl-8-9" value="Clicks on Login" style="text;html=1;strokeColor=none;fillColor=none;align=center;verticalAlign=middle;whiteSpace=wrap;rounded=0;" vertex="1" parent="1">
          <mxGeometry x="600" y="185" width="60" height="30" as="geometry" />
        </mxCell>
        <mxCell id="M-ZwMUQiYMg1TXeoFl-8-14" style="edgeStyle=orthogonalEdgeStyle;rounded=0;orthogonalLoop=1;jettySize=auto;html=1;exitX=1;exitY=0.75;exitDx=0;exitDy=0;entryX=0.5;entryY=0;entryDx=0;entryDy=0;" edge="1" parent="1" source="M-ZwMUQiYMg1TXeoFl-8-10" target="M-ZwMUQiYMg1TXeoFl-8-13">
          <mxGeometry relative="1" as="geometry" />
        </mxCell>
        <mxCell id="M-ZwMUQiYMg1TXeoFl-8-16" style="edgeStyle=orthogonalEdgeStyle;rounded=0;orthogonalLoop=1;jettySize=auto;html=1;exitX=0;exitY=0.25;exitDx=0;exitDy=0;entryX=0;entryY=0.5;entryDx=0;entryDy=0;" edge="1" parent="1" source="M-ZwMUQiYMg1TXeoFl-8-10" target="M-ZwMUQiYMg1TXeoFl-8-1">
          <mxGeometry relative="1" as="geometry" />
        </mxCell>
        <mxCell id="M-ZwMUQiYMg1TXeoFl-8-19" style="edgeStyle=orthogonalEdgeStyle;rounded=0;orthogonalLoop=1;jettySize=auto;html=1;entryX=1;entryY=0.5;entryDx=0;entryDy=0;" edge="1" parent="1" target="M-ZwMUQiYMg1TXeoFl-8-18">
          <mxGeometry relative="1" as="geometry">
            <mxPoint x="330" y="550" as="targetPoint" />
            <mxPoint x="360" y="460" as="sourcePoint" />
          </mxGeometry>
        </mxCell>
        <mxCell id="M-ZwMUQiYMg1TXeoFl-8-10" value="Feed" style="rounded=1;whiteSpace=wrap;html=1;" vertex="1" parent="1">
          <mxGeometry x="354" y="400" width="120" height="60" as="geometry" />
        </mxCell>
        <mxCell id="M-ZwMUQiYMg1TXeoFl-8-12" value="Logs in" style="text;html=1;strokeColor=none;fillColor=none;align=center;verticalAlign=middle;whiteSpace=wrap;rounded=0;" vertex="1" parent="1">
          <mxGeometry x="414" y="330" width="60" height="30" as="geometry" />
        </mxCell>
        <mxCell id="M-ZwMUQiYMg1TXeoFl-8-29" style="edgeStyle=orthogonalEdgeStyle;rounded=0;orthogonalLoop=1;jettySize=auto;html=1;exitX=1;exitY=0;exitDx=0;exitDy=0;entryX=0.75;entryY=1;entryDx=0;entryDy=0;" edge="1" parent="1" source="M-ZwMUQiYMg1TXeoFl-8-13" target="M-ZwMUQiYMg1TXeoFl-8-1">
          <mxGeometry relative="1" as="geometry">
            <mxPoint x="690" y="410" as="targetPoint" />
            <Array as="points">
              <mxPoint x="700" y="320" />
              <mxPoint x="444" y="320" />
            </Array>
          </mxGeometry>
        </mxCell>
        <mxCell id="M-ZwMUQiYMg1TXeoFl-8-31" style="edgeStyle=orthogonalEdgeStyle;rounded=0;orthogonalLoop=1;jettySize=auto;html=1;exitX=0;exitY=1;exitDx=0;exitDy=0;entryX=0.75;entryY=1;entryDx=0;entryDy=0;" edge="1" parent="1" source="M-ZwMUQiYMg1TXeoFl-8-13" target="M-ZwMUQiYMg1TXeoFl-8-18">
          <mxGeometry relative="1" as="geometry">
            <Array as="points">
              <mxPoint x="580" y="740" />
              <mxPoint x="280" y="740" />
            </Array>
          </mxGeometry>
        </mxCell>
        <mxCell id="M-ZwMUQiYMg1TXeoFl-8-34" style="edgeStyle=orthogonalEdgeStyle;rounded=0;orthogonalLoop=1;jettySize=auto;html=1;exitX=0.5;exitY=1;exitDx=0;exitDy=0;entryX=0.5;entryY=0;entryDx=0;entryDy=0;" edge="1" parent="1" source="M-ZwMUQiYMg1TXeoFl-8-13" target="M-ZwMUQiYMg1TXeoFl-8-33">
          <mxGeometry relative="1" as="geometry" />
        </mxCell>
        <mxCell id="M-ZwMUQiYMg1TXeoFl-8-13" value="User" style="rounded=1;whiteSpace=wrap;html=1;" vertex="1" parent="1">
          <mxGeometry x="580" y="510" width="120" height="60" as="geometry" />
        </mxCell>
        <mxCell id="M-ZwMUQiYMg1TXeoFl-8-15" value="Clicks on User Avatar" style="text;html=1;strokeColor=none;fillColor=none;align=center;verticalAlign=middle;whiteSpace=wrap;rounded=0;" vertex="1" parent="1">
          <mxGeometry x="520" y="400" width="60" height="30" as="geometry" />
        </mxCell>
        <mxCell id="M-ZwMUQiYMg1TXeoFl-8-17" value="Logs out" style="text;html=1;strokeColor=none;fillColor=none;align=center;verticalAlign=middle;whiteSpace=wrap;rounded=0;" vertex="1" parent="1">
          <mxGeometry x="270" y="280" width="60" height="30" as="geometry" />
        </mxCell>
        <mxCell id="M-ZwMUQiYMg1TXeoFl-8-21" style="edgeStyle=orthogonalEdgeStyle;rounded=0;orthogonalLoop=1;jettySize=auto;html=1;exitX=0;exitY=0;exitDx=0;exitDy=0;entryX=0;entryY=0.5;entryDx=0;entryDy=0;" edge="1" parent="1" source="M-ZwMUQiYMg1TXeoFl-8-18" target="M-ZwMUQiYMg1TXeoFl-8-10">
          <mxGeometry relative="1" as="geometry" />
        </mxCell>
        <mxCell id="M-ZwMUQiYMg1TXeoFl-8-23" style="edgeStyle=orthogonalEdgeStyle;rounded=0;orthogonalLoop=1;jettySize=auto;html=1;exitX=1;exitY=0.75;exitDx=0;exitDy=0;entryX=0.5;entryY=1;entryDx=0;entryDy=0;" edge="1" parent="1" source="M-ZwMUQiYMg1TXeoFl-8-18" target="M-ZwMUQiYMg1TXeoFl-8-10">
          <mxGeometry relative="1" as="geometry" />
        </mxCell>
        <mxCell id="M-ZwMUQiYMg1TXeoFl-8-25" style="edgeStyle=orthogonalEdgeStyle;rounded=0;orthogonalLoop=1;jettySize=auto;html=1;exitX=0;exitY=0.25;exitDx=0;exitDy=0;entryX=0;entryY=0;entryDx=0;entryDy=0;" edge="1" parent="1" source="M-ZwMUQiYMg1TXeoFl-8-18" target="M-ZwMUQiYMg1TXeoFl-8-1">
          <mxGeometry relative="1" as="geometry">
            <Array as="points">
              <mxPoint x="70" y="655" />
              <mxPoint x="70" y="150" />
              <mxPoint x="354" y="150" />
            </Array>
          </mxGeometry>
        </mxCell>
        <mxCell id="M-ZwMUQiYMg1TXeoFl-8-27" style="edgeStyle=orthogonalEdgeStyle;rounded=0;orthogonalLoop=1;jettySize=auto;html=1;exitX=1;exitY=1;exitDx=0;exitDy=0;entryX=1;entryY=1;entryDx=0;entryDy=0;" edge="1" parent="1" source="M-ZwMUQiYMg1TXeoFl-8-18" target="M-ZwMUQiYMg1TXeoFl-8-10">
          <mxGeometry relative="1" as="geometry" />
        </mxCell>
        <mxCell id="M-ZwMUQiYMg1TXeoFl-8-18" value="Create Recipe" style="rounded=1;whiteSpace=wrap;html=1;" vertex="1" parent="1">
          <mxGeometry x="190" y="640" width="120" height="60" as="geometry" />
        </mxCell>
        <mxCell id="M-ZwMUQiYMg1TXeoFl-8-20" value="Clicks on Create Recipe" style="text;html=1;strokeColor=none;fillColor=none;align=center;verticalAlign=middle;whiteSpace=wrap;rounded=0;" vertex="1" parent="1">
          <mxGeometry x="280" y="555" width="60" height="30" as="geometry" />
        </mxCell>
        <mxCell id="M-ZwMUQiYMg1TXeoFl-8-22" value="Clicks on Feed Icon" style="text;html=1;strokeColor=none;fillColor=none;align=center;verticalAlign=middle;whiteSpace=wrap;rounded=0;" vertex="1" parent="1">
          <mxGeometry x="120" y="525" width="60" height="30" as="geometry" />
        </mxCell>
        <mxCell id="M-ZwMUQiYMg1TXeoFl-8-24" value="Clicks on Post Button" style="text;html=1;strokeColor=none;fillColor=none;align=center;verticalAlign=middle;whiteSpace=wrap;rounded=0;" vertex="1" parent="1">
          <mxGeometry x="414" y="540" width="60" height="30" as="geometry" />
        </mxCell>
        <mxCell id="M-ZwMUQiYMg1TXeoFl-8-26" value="Logs out" style="text;html=1;strokeColor=none;fillColor=none;align=center;verticalAlign=middle;whiteSpace=wrap;rounded=0;" vertex="1" parent="1">
          <mxGeometry x="90" y="120" width="60" height="30" as="geometry" />
        </mxCell>
        <mxCell id="M-ZwMUQiYMg1TXeoFl-8-28" value="Clicks on Hungerger Logo" style="text;html=1;strokeColor=none;fillColor=none;align=center;verticalAlign=middle;whiteSpace=wrap;rounded=0;" vertex="1" parent="1">
          <mxGeometry x="354" y="540" width="60" height="30" as="geometry" />
        </mxCell>
        <mxCell id="M-ZwMUQiYMg1TXeoFl-8-30" value="Logs out" style="text;html=1;strokeColor=none;fillColor=none;align=center;verticalAlign=middle;whiteSpace=wrap;rounded=0;" vertex="1" parent="1">
          <mxGeometry x="710" y="400" width="60" height="30" as="geometry" />
        </mxCell>
        <mxCell id="M-ZwMUQiYMg1TXeoFl-8-32" value="Clicks on Create Recipe" style="text;html=1;strokeColor=none;fillColor=none;align=center;verticalAlign=middle;whiteSpace=wrap;rounded=0;" vertex="1" parent="1">
          <mxGeometry x="520" y="610" width="60" height="30" as="geometry" />
        </mxCell>
        <mxCell id="M-ZwMUQiYMg1TXeoFl-8-36" style="edgeStyle=orthogonalEdgeStyle;rounded=0;orthogonalLoop=1;jettySize=auto;html=1;exitX=0;exitY=0.5;exitDx=0;exitDy=0;entryX=0.5;entryY=1;entryDx=0;entryDy=0;" edge="1" parent="1" source="M-ZwMUQiYMg1TXeoFl-8-33" target="M-ZwMUQiYMg1TXeoFl-8-18">
          <mxGeometry relative="1" as="geometry" />
        </mxCell>
        <mxCell id="M-ZwMUQiYMg1TXeoFl-8-38" style="edgeStyle=orthogonalEdgeStyle;rounded=0;orthogonalLoop=1;jettySize=auto;html=1;exitX=1;exitY=0;exitDx=0;exitDy=0;entryX=1;entryY=1;entryDx=0;entryDy=0;" edge="1" parent="1" source="M-ZwMUQiYMg1TXeoFl-8-33" target="M-ZwMUQiYMg1TXeoFl-8-13">
          <mxGeometry relative="1" as="geometry">
            <mxPoint x="730" y="760" as="targetPoint" />
          </mxGeometry>
        </mxCell>
        <mxCell id="M-ZwMUQiYMg1TXeoFl-8-41" style="edgeStyle=orthogonalEdgeStyle;rounded=0;orthogonalLoop=1;jettySize=auto;html=1;exitX=1;exitY=0.75;exitDx=0;exitDy=0;entryX=1;entryY=0.5;entryDx=0;entryDy=0;" edge="1" parent="1" source="M-ZwMUQiYMg1TXeoFl-8-33" target="M-ZwMUQiYMg1TXeoFl-8-13">
          <mxGeometry relative="1" as="geometry">
            <Array as="points">
              <mxPoint x="790" y="845" />
              <mxPoint x="790" y="540" />
            </Array>
          </mxGeometry>
        </mxCell>
        <mxCell id="M-ZwMUQiYMg1TXeoFl-8-33" value="Edit User" style="rounded=1;whiteSpace=wrap;html=1;" vertex="1" parent="1">
          <mxGeometry x="580" y="800" width="120" height="60" as="geometry" />
        </mxCell>
        <mxCell id="M-ZwMUQiYMg1TXeoFl-8-35" value="Clicks on Edit Profile" style="text;html=1;strokeColor=none;fillColor=none;align=center;verticalAlign=middle;whiteSpace=wrap;rounded=0;" vertex="1" parent="1">
          <mxGeometry x="590" y="760" width="60" height="30" as="geometry" />
        </mxCell>
        <mxCell id="M-ZwMUQiYMg1TXeoFl-8-37" value="Clicks on Create Recipe" style="text;html=1;strokeColor=none;fillColor=none;align=center;verticalAlign=middle;whiteSpace=wrap;rounded=0;" vertex="1" parent="1">
          <mxGeometry x="400" y="840" width="60" height="30" as="geometry" />
        </mxCell>
        <mxCell id="M-ZwMUQiYMg1TXeoFl-8-39" value="Clicks on Save Button" style="text;html=1;strokeColor=none;fillColor=none;align=center;verticalAlign=middle;whiteSpace=wrap;rounded=0;" vertex="1" parent="1">
          <mxGeometry x="700" y="710" width="60" height="30" as="geometry" />
        </mxCell>
        <mxCell id="M-ZwMUQiYMg1TXeoFl-8-42" value="Clicks on Profile Avatar" style="text;html=1;strokeColor=none;fillColor=none;align=center;verticalAlign=middle;whiteSpace=wrap;rounded=0;" vertex="1" parent="1">
          <mxGeometry x="790" y="815" width="60" height="30" as="geometry" />
        </mxCell>
      </root>
    </mxGraphModel>
  </diagram>
</mxfile>
